<svg width="1200" height="675" viewBox="0 0 1200 675" xmlns="http://www.w3.org/2000/svg">
  <defs>
    <radialGradient id="bg3" cx="50%" cy="60%" r="50%">
      <stop offset="0%" stop-color="#091522"/>
      <stop offset="100%" stop-color="#020810"/>
    </radialGradient>
  </defs>

  <rect width="1200" height="675" fill="url(#bg3)"/>

  <!-- Full-width hero area -->
  <rect x="0" y="0" width="1200" height="280" fill="#040e1c"/>
  <line x1="0" y1="280" x2="1200" y2="280" stroke="#00d4b4" stroke-opacity="0.06" stroke-width="1"/>

  <!-- Hero text mockup -->
  <text x="600" y="95" text-anchor="middle" font-family="'Helvetica Neue', sans-serif" font-size="9" letter-spacing="4" fill="#00d4b4" fill-opacity="0.5">| DIENSTLEISTUNG & BERATUNG</text>
  <rect x="280" y="115" width="640" height="40" rx="2" fill="#ffffff" fill-opacity="0.08"/>
  <rect x="340" y="167" width="520" height="28" rx="2" fill="#ffffff" fill-opacity="0.05"/>
  <rect x="480" y="210" width="240" height="38" rx="2" fill="white" fill-opacity="0.85"/>
  <text x="600" y="233" text-anchor="middle" font-family="'Helvetica Neue', sans-serif" font-size="10" font-weight="700" letter-spacing="2" fill="#020810">JETZT BERATUNG ANFRAGEN</text>

  <!-- Three columns below hero -->
  <rect x="60" y="320" width="340" height="200" rx="3" fill="#040d1a" stroke="#ffffff" stroke-opacity="0.05" stroke-width="1"/>
  <rect x="430" y="320" width="340" height="200" rx="3" fill="#040d1a" stroke="#00d4b4" stroke-opacity="0.1" stroke-width="1"/>
  <rect x="800" y="320" width="340" height="200" rx="3" fill="#040d1a" stroke="#ffffff" stroke-opacity="0.05" stroke-width="1"/>

  <!-- Column 1 content -->
  <rect x="80" y="345" width="120" height="12" rx="2" fill="#ffffff" fill-opacity="0.07"/>
  <rect x="80" y="368" width="280" height="9" rx="2" fill="#ffffff" fill-opacity="0.04"/>
  <rect x="80" y="385" width="260" height="9" rx="2" fill="#ffffff" fill-opacity="0.04"/>
  <rect x="80" y="402" width="240" height="9" rx="2" fill="#ffffff" fill-opacity="0.04"/>
  <rect x="80" y="419" width="270" height="9" rx="2" fill="#ffffff" fill-opacity="0.04"/>

  <!-- Column 2 content — highlighted -->
  <rect x="450" y="345" width="140" height="12" rx="2" fill="#00d4b4" fill-opacity="0.2"/>
  <rect x="450" y="368" width="290" height="9" rx="2" fill="#00d4b4" fill-opacity="0.06"/>
  <rect x="450" y="385" width="270" height="9" rx="2" fill="#00d4b4" fill-opacity="0.06"/>
  <rect x="450" y="402" width="260" height="9" rx="2" fill="#00d4b4" fill-opacity="0.06"/>
  <!-- Metric in column 2 -->
  <text x="590" y="468" text-anchor="middle" font-family="'Helvetica Neue', sans-serif" font-size="28" font-weight="700" fill="white" fill-opacity="0.9">8 Wo.</text>
  <text x="590" y="487" text-anchor="middle" font-family="'Helvetica Neue', sans-serif" font-size="8" letter-spacing="2" fill="#00d4b4" fill-opacity="0.55">BIS ERSTE ANFRAGEN</text>

  <!-- Column 3 content -->
  <rect x="820" y="345" width="110" height="12" rx="2" fill="#ffffff" fill-opacity="0.07"/>
  <rect x="820" y="368" width="280" height="9" rx="2" fill="#ffffff" fill-opacity="0.04"/>
  <rect x="820" y="385" width="250" height="9" rx="2" fill="#ffffff" fill-opacity="0.04"/>
  <rect x="820" y="402" width="270" height="9" rx="2" fill="#ffffff" fill-opacity="0.04"/>
  <rect x="820" y="419" width="240" height="9" rx="2" fill="#ffffff" fill-opacity="0.04"/>

  <!-- Watermark -->
  <text x="600" y="640" text-anchor="middle" font-family="'Helvetica Neue', sans-serif" font-size="9" letter-spacing="4" fill="#00d4b4" fill-opacity="0.2">PROJEKT 03 — SCREENSHOT FOLGT — DIENSTLEISTUNG & BERATUNG</text>

  <!-- Corner marks -->
  <path d="M 20 20 L 20 44" stroke="#00d4b4" stroke-opacity="0.15" stroke-width="1"/>
  <path d="M 20 20 L 44 20" stroke="#00d4b4" stroke-opacity="0.15" stroke-width="1"/>
  <path d="M 1180 20 L 1180 44" stroke="#00d4b4" stroke-opacity="0.15" stroke-width="1"/>
  <path d="M 1180 20 L 1156 20" stroke="#00d4b4" stroke-opacity="0.15" stroke-width="1"/>
  <path d="M 20 655 L 20 631" stroke="#00d4b4" stroke-opacity="0.15" stroke-width="1"/>
  <path d="M 20 655 L 44 655" stroke="#00d4b4" stroke-opacity="0.15" stroke-width="1"/>
  <path d="M 1180 655 L 1180 631" stroke="#00d4b4" stroke-opacity="0.15" stroke-width="1"/>
  <path d="M 1180 655 L 1156 655" stroke="#00d4b4" stroke-opacity="0.15" stroke-width="1"/>
</svg>
