<svg width="1200" height="675" viewBox="0 0 1200 675" xmlns="http://www.w3.org/2000/svg">
  <defs>
    <radialGradient id="bg1" cx="30%" cy="50%" r="60%">
      <stop offset="0%" stop-color="#0d1f38"/>
      <stop offset="100%" stop-color="#020810"/>
    </radialGradient>
  </defs>

  <rect width="1200" height="675" fill="url(#bg1)"/>

  <!-- Browser chrome -->
  <rect x="80" y="60" width="1040" height="560" rx="6" fill="#040d1a" stroke="#ffffff" stroke-opacity="0.06" stroke-width="1"/>
  <!-- Top bar -->
  <rect x="80" y="60" width="1040" height="38" rx="6" fill="#0d1f38"/>
  <rect x="80" y="88" width="1040" height="10" fill="#0d1f38"/>
  <!-- Dots -->
  <circle cx="112" cy="79" r="5" fill="#ff5f57" fill-opacity="0.5"/>
  <circle cx="132" cy="79" r="5" fill="#febc2e" fill-opacity="0.5"/>
  <circle cx="152" cy="79" r="5" fill="#28c840" fill-opacity="0.5"/>
  <!-- URL bar -->
  <rect x="190" y="70" width="640" height="18" rx="9" fill="#ffffff" fill-opacity="0.04" stroke="#ffffff" stroke-opacity="0.07" stroke-width="1"/>
  <text x="510" y="82" text-anchor="middle" font-family="monospace" font-size="9" fill="rgba(255,255,255,0.25)" letter-spacing="1">lindermedia.de/handwerk-referenz</text>

  <!-- Hero area inside browser -->
  <rect x="80" y="98" width="1040" height="200" fill="#0a1a2e"/>
  <text x="600" y="175" text-anchor="middle" font-family="'Helvetica Neue', sans-serif" font-size="28" font-weight="700" letter-spacing="-1" fill="rgba(255,255,255,0.7)">SPEZIALIST WIRD MARKE</text>
  <text x="600" y="204" text-anchor="middle" font-family="'Helvetica Neue', sans-serif" font-size="12" letter-spacing="3" fill="#00d4b4" fill-opacity="0.6">HANDWERK & BAUGEWERBE</text>

  <!-- Content blocks -->
  <rect x="120" y="320" width="300" height="16" rx="2" fill="#ffffff" fill-opacity="0.07"/>
  <rect x="120" y="346" width="220" height="11" rx="2" fill="#ffffff" fill-opacity="0.04"/>
  <rect x="120" y="365" width="260" height="11" rx="2" fill="#ffffff" fill-opacity="0.04"/>
  <rect x="120" y="384" width="190" height="11" rx="2" fill="#ffffff" fill-opacity="0.04"/>

  <rect x="480" y="320" width="280" height="16" rx="2" fill="#ffffff" fill-opacity="0.07"/>
  <rect x="480" y="346" width="200" height="11" rx="2" fill="#ffffff" fill-opacity="0.04"/>
  <rect x="480" y="365" width="240" height="11" rx="2" fill="#ffffff" fill-opacity="0.04"/>

  <rect x="840" y="320" width="240" height="16" rx="2" fill="#00d4b4" fill-opacity="0.12"/>
  <rect x="840" y="346" width="180" height="11" rx="2" fill="#00d4b4" fill-opacity="0.06"/>
  <rect x="840" y="365" width="200" height="11" rx="2" fill="#00d4b4" fill-opacity="0.06"/>

  <!-- Metric cards -->
  <rect x="120" y="440" width="180" height="80" rx="3" fill="#0d1f38" stroke="#00d4b4" stroke-opacity="0.15" stroke-width="1"/>
  <text x="210" y="475" text-anchor="middle" font-family="'Helvetica Neue', sans-serif" font-size="24" font-weight="700" fill="white" fill-opacity="0.9">3×</text>
  <text x="210" y="497" text-anchor="middle" font-family="'Helvetica Neue', sans-serif" font-size="9" letter-spacing="2" fill="#00d4b4" fill-opacity="0.6">MEHR ANFRAGEN</text>

  <rect x="320" y="440" width="180" height="80" rx="3" fill="#0d1f38" stroke="#ffffff" stroke-opacity="0.06" stroke-width="1"/>
  <text x="410" y="475" text-anchor="middle" font-family="'Helvetica Neue', sans-serif" font-size="24" font-weight="700" fill="white" fill-opacity="0.9">+6 Wo.</text>
  <text x="410" y="497" text-anchor="middle" font-family="'Helvetica Neue', sans-serif" font-size="9" letter-spacing="2" fill="rgba(255,255,255,0.3)">BUCHUNGSVORLAUF</text>

  <!-- Watermark label -->
  <text x="600" y="590" text-anchor="middle" font-family="'Helvetica Neue', sans-serif" font-size="9" letter-spacing="4" fill="#00d4b4" fill-opacity="0.25">PROJEKT 01 — SCREENSHOT FOLGT — HANDWERK & BAUGEWERBE</text>

  <!-- Corner marks -->
  <path d="M 20 20 L 20 44" stroke="#00d4b4" stroke-opacity="0.15" stroke-width="1"/>
  <path d="M 20 20 L 44 20" stroke="#00d4b4" stroke-opacity="0.15" stroke-width="1"/>
  <path d="M 1180 20 L 1180 44" stroke="#00d4b4" stroke-opacity="0.15" stroke-width="1"/>
  <path d="M 1180 20 L 1156 20" stroke="#00d4b4" stroke-opacity="0.15" stroke-width="1"/>
  <path d="M 20 655 L 20 631" stroke="#00d4b4" stroke-opacity="0.15" stroke-width="1"/>
  <path d="M 20 655 L 44 655" stroke="#00d4b4" stroke-opacity="0.15" stroke-width="1"/>
  <path d="M 1180 655 L 1180 631" stroke="#00d4b4" stroke-opacity="0.15" stroke-width="1"/>
  <path d="M 1180 655 L 1156 655" stroke="#00d4b4" stroke-opacity="0.15" stroke-width="1"/>
</svg>
