<?xml version="1.0" encoding="UTF-8"?>
<svg id="uuid-55cef209-1987-4809-878b-8ffcda9d6d77" data-name="Ebene 1" xmlns="http://www.w3.org/2000/svg" viewBox="0 0 77.04 74.64">
  <defs>
    <style>
      .uuid-150a4d8e-9fd0-423b-bb41-0bd4bdb23202 {
        fill: #fff;
      }
    </style>
  </defs>
  <path class="uuid-150a4d8e-9fd0-423b-bb41-0bd4bdb23202" d="M38.88,0c.41.41,1.13.19,1.7.34,1.5.41,6.72,4.15,8.12,5.32.19.16.47.32.5.58-3.36-.47-5.63,1.72-7.4,4.24L12.96,62.88c.24-.07.51.24.6.24h50.28c-1-2.93-2.73-5.84-4.28-8.56-2.31-4.07-4.78-8.11-7.6-11.83-5.65,7.59-6.09,18.68-18.41,17.21-6.48-.78-7.95-7.75-11.16-12.33l.32-1.26,6.21-10.58,6.61,11.51.72-.1,10.93-19.07c2.46-3.26,8.05-3.25,10.58-.05,5.33,10.15,12.46,19.96,17.65,30.11.35.69.76,1.4.99,2.13.33,1.06.31,2.06.65,3.07v.72c-.34,1.26-.32,2.38-.77,3.67-1.32,3.78-4.79,6.08-8.59,6.89H9.36c-4.61-1.1-8.14-3.64-9.36-8.4v-4.08c1.65-4.87,4.24-9.54,6.68-14.08,5.57-10.37,11.82-20.39,17.6-30.64,2.38-4.22,4.65-9.52,7.2-13.44,1.01-1.55,3.03-3.06,4.8-3.6l1.88-.4h.72Z"/>
</svg>